<svg width="273" height="140" xmlns="http://www.w3.org/2000/svg">
  <rect fill="#fff" stroke-width="2.5" x="1" y="1" width="271" height="138" id="svg_1" rx="18" stroke="#000" opacity="0.94"/>
  <path stroke="#000" id="svg_2" d="m95.887183,91.349976l79.165287,0.029924l-2.568932,3.758899l-73.997093,-0.089768l-2.599266,-3.699055l0.000003,0zm0.544033,-50.001881l78.107444,-0.089768l2.266765,3.856056l-82.671233,0.029924l2.297024,-3.796212zm-7.708251,25.055268l93.463457,-0.089768l-0.120812,3.85606l-93.282198,-0.059844l-0.060447,-3.706448zm93.540826,0.357647c0,25.528017 -20.980455,46.295319 -46.773156,46.295319c-25.781559,0 -46.758103,-20.771055 -46.758103,-46.295319c0,-25.524388 20.980336,-46.291686 46.758103,-46.291686c25.792705,-0.00375 46.773156,20.767298 46.773156,46.291686zm-46.769484,-50.001884c-27.839586,0 -50.494314,22.428745 -50.494314,49.998124c0,27.573136 22.654731,50.001878 50.494314,50.001878c27.854744,0 50.505691,-22.428741 50.505691,-50.001878c0,-27.569379 -22.650943,-49.998124 -50.505691,-49.998124zm14.170121,50.001884c0,27.278811 -7.465079,46.295319 -14.170121,46.295319c-6.697456,0 -14.162417,-19.016507 -14.162417,-46.295319c0,-27.286322 7.461281,-46.291686 14.162417,-46.291686c6.701257,-0.00375 14.170121,19.005364 14.170121,46.291686zm-14.170121,-50.001884c-11.630156,0 -17.90621,25.762659 -17.90621,49.998124c0,24.242864 6.276053,50.001878 17.90621,50.001878c11.630275,0 17.917702,-25.76276 17.917702,-50.001878c-0.003791,-24.235465 -6.287427,-49.998124 -17.917702,-49.998124zm33.186357,50.001884c0,25.528017 -14.892487,46.295319 -33.186357,46.295319c-18.290069,0 -33.17498,-20.771055 -33.17498,-46.295319c0,-25.524388 14.884911,-46.291686 33.17498,-46.291686c18.293871,-0.00375 33.186357,20.767298 33.186357,46.291686zm-33.186357,-50.001884c-20.352006,0 -36.91877,22.428745 -36.91877,49.998124c0,27.573136 16.566763,50.001878 36.91877,50.001878c20.359589,0 36.922677,-22.428741 36.922677,-50.001878c0,-27.569379 -16.563087,-49.998124 -36.922677,-49.998124z" fill-opacity="null" stroke-opacity="null" fill="none"/>
</svg>