<svg width="273" height="140" xmlns="http://www.w3.org/2000/svg">
  <rect fill="rgba(0, 0, 0, 0)" stroke-width="2.5" x="1" y="1" width="271" height="138" id="svg_1" rx="18" stroke="#000" opacity="0.94"/>
  <path fill="#fff" stroke-width="2.5" stroke-opacity="null" fill-opacity="null" d="m60.717834,35.485988c0,0 2.394117,-11.275725 0,-15.095336c-2.396937,-3.819612 -3.352892,-6.363878 -8.623334,-8.185341s-3.350072,-1.458456 -7.182352,-1.272133c-3.83228,0.18311 -7.027256,2.544266 -7.027256,3.816399c0,0 -2.394117,0.18311 -3.350072,1.275346c-0.958775,1.092235 -2.554853,6.180768 -2.554853,7.456113s0.798039,9.823694 1.596078,11.641945l-0.950315,0.363008c-0.798039,10.546497 3.192156,11.821842 3.192156,11.821842c1.435342,9.823694 2.873505,5.641075 2.873505,8.185341s-1.438162,1.638353 -1.438162,1.638353s-1.274607,3.999509 -4.466763,5.454752c-3.192156,1.452031 -20.912572,9.271151 -22.353554,10.909505c-1.440982,1.641566 -1.277427,9.277576 -1.277427,9.277576l75.988549,0c0,0 0.166376,-7.636011 -1.274607,-9.277576c-1.443802,-1.641566 -19.164218,-9.457474 -22.356374,-10.909505c-3.192156,-1.455243 -4.466763,-5.454752 -4.466763,-5.454752s-1.438162,0.905913 -1.438162,-1.638353s1.438162,1.638353 2.876325,-8.185341c0,0 3.987376,-1.275346 3.192156,-11.821842l-0.958775,0l0,-0.000001z" id="svg_2" stroke="#000"/>
  <line fill="none" stroke="#000" stroke-width="7.5" stroke-opacity="null" fill-opacity="null" x1="162" y1="18" x2="251" y2="18" id="svg_5" stroke-linejoin="null" stroke-linecap="null"/>
  <line fill="none" stroke="#000" stroke-width="7.5" stroke-opacity="null" fill-opacity="null" x1="162" y1="39" x2="251" y2="39" id="svg_6" stroke-linejoin="null" stroke-linecap="null"/>
  <line fill="none" stroke="#000" stroke-width="7.5" stroke-opacity="null" fill-opacity="null" x1="162" y1="61" x2="251" y2="61" id="svg_7" stroke-linejoin="null" stroke-linecap="null"/>
  <line fill="none" stroke="#000" stroke-width="7.5" stroke-opacity="null" fill-opacity="null" x1="11" y1="115" x2="100" y2="115" id="svg_8" stroke-linejoin="null" stroke-linecap="null"/>
  <line fill="none" stroke="#000" stroke-width="7.5" stroke-opacity="null" fill-opacity="null" x1="162" y1="117" x2="251" y2="117" id="svg_9" stroke-linejoin="null" stroke-linecap="null"/>
</svg>